<?xml version="1.0" standalone="no"?>
<!DOCTYPE svg PUBLIC "-//W3C//DTD SVG 1.1//EN" "http://www.w3.org/Graphics/SVG/1.1/DTD/svg11.dtd">
<svg width="100" height="128" viewBox="0 -128 100 128" xmlns="http://www.w3.org/2000/svg" version="1.1">
<title>OpenSCAD Model</title>
<path d="
M 53.1395,-0.0197296 L 56.2667,-0.0788422 L 59.3691,-0.177124 L 62.4345,-0.314163 L 65.4509,-0.489426 L 68.4062,-0.702225
 L 71.289,-0.951721 L 74.0877,-1.23692 L 76.7913,-1.55672 L 79.3893,-1.90982 L 81.8712,-2.29486 L 84.2274,-2.71031
 L 86.4484,-3.15453 L 88.5257,-3.62575 L 90.4509,-4.12215 L 92.2164,-4.64172 L 93.8153,-5.18245 L 95.2413,-5.7422
 L 96.4888,-6.31874 L 97.5528,-6.90982 L 98.4292,-7.51309 L 99.1144,-8.12617 L 99.6057,-8.74666 L 99.9013,-9.37209
 L 100,-10 L 77.1,-10 L 77.1,-83 L 100,-83 L 100,-120 L 99.9013,-120.471
 L 99.6057,-120.94 L 99.1144,-121.405 L 98.4292,-121.865 L 97.5528,-122.318 L 96.4888,-122.761 L 95.2413,-123.193
 L 93.8153,-123.613 L 92.2164,-124.019 L 90.4509,-124.408 L 88.5257,-124.781 L 86.4484,-125.134 L 84.2274,-125.467
 L 81.8712,-125.779 L 79.3893,-126.068 L 76.7913,-126.332 L 74.0877,-126.572 L 71.289,-126.786 L 68.4062,-126.973
 L 65.4509,-127.133 L 62.4345,-127.264 L 59.3691,-127.367 L 56.2667,-127.441 L 53.1395,-127.485 L 50,-127.5
 L 46.8605,-127.485 L 43.7333,-127.441 L 40.6309,-127.367 L 37.5655,-127.264 L 34.5491,-127.133 L 31.5938,-126.973
 L 28.711,-126.786 L 25.9123,-126.572 L 23.2086,-126.332 L 20.6107,-126.068 L 18.1288,-125.779 L 15.7726,-125.467
 L 13.5516,-125.134 L 11.4743,-124.781 L 9.54915,-124.408 L 7.7836,-124.019 L 6.18466,-123.613 L 4.75864,-123.193
 L 3.51117,-122.761 L 2.44717,-122.318 L 1.57083,-121.865 L 0.885635,-121.405 L 0.394257,-120.94 L 0.0986633,-120.471
 L 0,-120 L 0,-83 L 22.9,-83 L 22.9,-10 L 0,-10 L 0.0986633,-9.37209
 L 0.394257,-8.74666 L 0.885635,-8.12617 L 1.57083,-7.51309 L 2.44717,-6.90982 L 3.51117,-6.31874 L 4.75864,-5.7422
 L 6.18466,-5.18245 L 7.7836,-4.64172 L 9.54915,-4.12215 L 11.4743,-3.62575 L 13.5516,-3.15453 L 15.7726,-2.71031
 L 18.1288,-2.29486 L 20.6107,-1.90982 L 23.2086,-1.55672 L 25.9123,-1.23692 L 28.711,-0.951721 L 31.5938,-0.702225
 L 34.5491,-0.489426 L 37.5655,-0.314163 L 40.6309,-0.177124 L 43.7333,-0.0788422 L 46.8605,-0.0197296 L 50,-0
 z
M 48.9547,-97.0548 L 46.9098,-97.4894 L 45,-98.3397 L 43.3087,-99.5685 L 41.9098,-101.122 L 40.8645,-102.933
 L 40.2185,-104.921 L 40,-107 L 40.2185,-109.079 L 40.8645,-111.067 L 41.9098,-112.878 L 43.3087,-114.431
 L 45,-115.66 L 46.9098,-116.511 L 48.9547,-116.945 L 51.0453,-116.945 L 53.0902,-116.511 L 55,-115.66
 L 56.6913,-114.431 L 58.0902,-112.878 L 59.1355,-111.067 L 59.7815,-109.079 L 60,-107 L 59.7815,-104.921
 L 59.1355,-102.933 L 58.0902,-101.122 L 56.6913,-99.5685 L 55,-98.3397 L 53.0902,-97.4894 L 51.0453,-97.0548
 z
M 60.7551,-111.808 L 60.4484,-111.873 L 60.1619,-112.001 L 59.9082,-112.185 L 59.6984,-112.418 L 59.5416,-112.69
 L 59.4447,-112.988 L 59.4119,-113.3 L 59.4447,-113.612 L 59.5416,-113.91 L 59.6984,-114.182 L 59.9082,-114.415
 L 60.1619,-114.599 L 60.4484,-114.727 L 60.7551,-114.792 L 61.0687,-114.792 L 61.3754,-114.727 L 61.6619,-114.599
 L 61.9156,-114.415 L 62.1254,-114.182 L 62.2822,-113.91 L 62.3791,-113.612 L 62.4119,-113.3 L 62.3791,-112.988
 L 62.2822,-112.69 L 62.1254,-112.418 L 61.9156,-112.185 L 61.6619,-112.001 L 61.3754,-111.873 L 61.0687,-111.808
 z
M 38.9313,-111.808 L 38.6245,-111.873 L 38.3381,-112.001 L 38.0844,-112.185 L 37.8745,-112.418 L 37.7178,-112.69
 L 37.6208,-112.988 L 37.5881,-113.3 L 37.6208,-113.612 L 37.7178,-113.91 L 37.8745,-114.182 L 38.0844,-114.415
 L 38.3381,-114.599 L 38.6245,-114.727 L 38.9313,-114.792 L 39.2449,-114.792 L 39.5516,-114.727 L 39.8381,-114.599
 L 40.0918,-114.415 L 40.3016,-114.182 L 40.4584,-113.91 L 40.5553,-113.612 L 40.5881,-113.3 L 40.5553,-112.988
 L 40.4584,-112.69 L 40.3016,-112.418 L 40.0918,-112.185 L 39.8381,-112.001 L 39.5516,-111.873 L 39.2449,-111.808
 z
M 83.7032,-96.3082 L 83.3965,-96.3734 L 83.11,-96.501 L 82.8563,-96.6853 L 82.6465,-96.9183 L 82.4897,-97.1899
 L 82.3928,-97.4881 L 82.36,-97.8 L 82.3928,-98.1119 L 82.4897,-98.4101 L 82.6465,-98.6817 L 82.8563,-98.9147
 L 83.11,-99.099 L 83.3965,-99.2266 L 83.7032,-99.2918 L 84.0168,-99.2918 L 84.3235,-99.2266 L 84.61,-99.099
 L 84.8637,-98.9147 L 85.0735,-98.6817 L 85.2303,-98.4101 L 85.3272,-98.1119 L 85.36,-97.8 L 85.3272,-97.4881
 L 85.2303,-97.1899 L 85.0735,-96.9183 L 84.8637,-96.6853 L 84.61,-96.501 L 84.3235,-96.3734 L 84.0168,-96.3082
 z
M 16.0432,-96.3082 L 15.7365,-96.3734 L 15.45,-96.501 L 15.1963,-96.6853 L 14.9865,-96.9183 L 14.8297,-97.1899
 L 14.7328,-97.4881 L 14.7,-97.8 L 14.7328,-98.1119 L 14.8297,-98.4101 L 14.9865,-98.6817 L 15.1963,-98.9147
 L 15.45,-99.099 L 15.7365,-99.2266 L 16.0432,-99.2918 L 16.3568,-99.2918 L 16.6635,-99.2266 L 16.95,-99.099
 L 17.2037,-98.9147 L 17.4135,-98.6817 L 17.5703,-98.4101 L 17.6672,-98.1119 L 17.7,-97.8 L 17.6672,-97.4881
 L 17.5703,-97.1899 L 17.4135,-96.9183 L 17.2037,-96.6853 L 16.95,-96.501 L 16.6635,-96.3734 L 16.3568,-96.3082
 z
M 49.8432,-92.9082 L 49.5365,-92.9734 L 49.25,-93.101 L 48.9963,-93.2853 L 48.7865,-93.5183 L 48.6297,-93.7899
 L 48.5328,-94.0881 L 48.5,-94.4 L 48.5328,-94.7119 L 48.6297,-95.0101 L 48.7865,-95.2817 L 48.9963,-95.5147
 L 49.25,-95.699 L 49.5365,-95.8266 L 49.8432,-95.8918 L 50.1568,-95.8918 L 50.4635,-95.8266 L 50.75,-95.699
 L 51.0037,-95.5147 L 51.2135,-95.2817 L 51.3703,-95.0101 L 51.4672,-94.7119 L 51.5,-94.4 L 51.4672,-94.0881
 L 51.3703,-93.7899 L 51.2135,-93.5183 L 51.0037,-93.2853 L 50.75,-93.101 L 50.4635,-92.9734 L 50.1568,-92.9082
 z
M 49.7432,-60.8082 L 49.4365,-60.8734 L 49.15,-61.001 L 48.8963,-61.1853 L 48.6865,-61.4183 L 48.5297,-61.6899
 L 48.4328,-61.9881 L 48.4,-62.3 L 48.4328,-62.6119 L 48.5297,-62.9101 L 48.6865,-63.1817 L 48.8963,-63.4147
 L 49.15,-63.599 L 49.4365,-63.7266 L 49.7432,-63.7918 L 50.0568,-63.7918 L 50.3635,-63.7266 L 50.65,-63.599
 L 50.9037,-63.4147 L 51.1135,-63.1817 L 51.2703,-62.9101 L 51.3672,-62.6119 L 51.4,-62.3 L 51.3672,-61.9881
 L 51.2703,-61.6899 L 51.1135,-61.4183 L 50.9037,-61.1853 L 50.65,-61.001 L 50.3635,-60.8734 L 50.0568,-60.8082
 z
M 49.7432,-49.3082 L 49.4365,-49.3734 L 49.15,-49.501 L 48.8963,-49.6853 L 48.6865,-49.9183 L 48.5297,-50.1899
 L 48.4328,-50.4881 L 48.4,-50.8 L 48.4328,-51.1119 L 48.5297,-51.4101 L 48.6865,-51.6817 L 48.8963,-51.9147
 L 49.15,-52.099 L 49.4365,-52.2266 L 49.7432,-52.2918 L 50.0568,-52.2918 L 50.3635,-52.2266 L 50.65,-52.099
 L 50.9037,-51.9147 L 51.1135,-51.6817 L 51.2703,-51.4101 L 51.3672,-51.1119 L 51.4,-50.8 L 51.3672,-50.4881
 L 51.2703,-50.1899 L 51.1135,-49.9183 L 50.9037,-49.6853 L 50.65,-49.501 L 50.3635,-49.3734 L 50.0568,-49.3082
 z
M 49.7432,-37.8082 L 49.4365,-37.8734 L 49.15,-38.001 L 48.8963,-38.1853 L 48.6865,-38.4183 L 48.5297,-38.6899
 L 48.4328,-38.9881 L 48.4,-39.3 L 48.4328,-39.6119 L 48.5297,-39.9101 L 48.6865,-40.1817 L 48.8963,-40.4147
 L 49.15,-40.599 L 49.4365,-40.7266 L 49.7432,-40.7918 L 50.0568,-40.7918 L 50.3635,-40.7266 L 50.65,-40.599
 L 50.9037,-40.4147 L 51.1135,-40.1817 L 51.2703,-39.9101 L 51.3672,-39.6119 L 51.4,-39.3 L 51.3672,-38.9881
 L 51.2703,-38.6899 L 51.1135,-38.4183 L 50.9037,-38.1853 L 50.65,-38.001 L 50.3635,-37.8734 L 50.0568,-37.8082
 z
M 26.3432,-29.8082 L 26.0365,-29.8734 L 25.75,-30.001 L 25.4963,-30.1853 L 25.2865,-30.4183 L 25.1297,-30.6899
 L 25.0328,-30.9881 L 25,-31.3 L 25.0328,-31.6119 L 25.1297,-31.9101 L 25.2865,-32.1817 L 25.4963,-32.4147
 L 25.75,-32.599 L 26.0365,-32.7266 L 26.3432,-32.7918 L 26.6568,-32.7918 L 26.9635,-32.7266 L 27.25,-32.599
 L 27.5037,-32.4147 L 27.7135,-32.1817 L 27.8703,-31.9101 L 27.9672,-31.6119 L 28,-31.3 L 27.9672,-30.9881
 L 27.8703,-30.6899 L 27.7135,-30.4183 L 27.5037,-30.1853 L 27.25,-30.001 L 26.9635,-29.8734 L 26.6568,-29.8082
 z
M 73.3432,-29.8082 L 73.0365,-29.8734 L 72.75,-30.001 L 72.4963,-30.1853 L 72.2865,-30.4183 L 72.1297,-30.6899
 L 72.0328,-30.9881 L 72,-31.3 L 72.0328,-31.6119 L 72.1297,-31.9101 L 72.2865,-32.1817 L 72.4963,-32.4147
 L 72.75,-32.599 L 73.0365,-32.7266 L 73.3432,-32.7918 L 73.6568,-32.7918 L 73.9635,-32.7266 L 74.25,-32.599
 L 74.5037,-32.4147 L 74.7135,-32.1817 L 74.8703,-31.9101 L 74.9672,-31.6119 L 75,-31.3 L 74.9672,-30.9881
 L 74.8703,-30.6899 L 74.7135,-30.4183 L 74.5037,-30.1853 L 74.25,-30.001 L 73.9635,-29.8734 L 73.6568,-29.8082
 z
M 57.3432,-29.8082 L 57.0365,-29.8734 L 56.75,-30.001 L 56.4963,-30.1853 L 56.2865,-30.4183 L 56.1297,-30.6899
 L 56.0328,-30.9881 L 56,-31.3 L 56.0328,-31.6119 L 56.1297,-31.9101 L 56.2865,-32.1817 L 56.4963,-32.4147
 L 56.75,-32.599 L 57.0365,-32.7266 L 57.3432,-32.7918 L 57.6568,-32.7918 L 57.9635,-32.7266 L 58.25,-32.599
 L 58.5037,-32.4147 L 58.7135,-32.1817 L 58.8703,-31.9101 L 58.9672,-31.6119 L 59,-31.3 L 58.9672,-30.9881
 L 58.8703,-30.6899 L 58.7135,-30.4183 L 58.5037,-30.1853 L 58.25,-30.001 L 57.9635,-29.8734 L 57.6568,-29.8082
 z
M 42.3432,-29.8082 L 42.0365,-29.8734 L 41.75,-30.001 L 41.4963,-30.1853 L 41.2865,-30.4183 L 41.1297,-30.6899
 L 41.0328,-30.9881 L 41,-31.3 L 41.0328,-31.6119 L 41.1297,-31.9101 L 41.2865,-32.1817 L 41.4963,-32.4147
 L 41.75,-32.599 L 42.0365,-32.7266 L 42.3432,-32.7918 L 42.6568,-32.7918 L 42.9635,-32.7266 L 43.25,-32.599
 L 43.5037,-32.4147 L 43.7135,-32.1817 L 43.8703,-31.9101 L 43.9672,-31.6119 L 44,-31.3 L 43.9672,-30.9881
 L 43.8703,-30.6899 L 43.7135,-30.4183 L 43.5037,-30.1853 L 43.25,-30.001 L 42.9635,-29.8734 L 42.6568,-29.8082
 z
M 72.0193,-23.3568 L 71.7637,-23.4112 L 71.525,-23.5175 L 71.3136,-23.6711 L 71.1387,-23.8653 L 71.0081,-24.0916
 L 70.9273,-24.3401 L 70.9,-24.6 L 70.9273,-24.8599 L 71.0081,-25.1084 L 71.1387,-25.3347 L 71.3136,-25.5289
 L 71.525,-25.6825 L 71.7637,-25.7888 L 72.0193,-25.8431 L 72.2807,-25.8431 L 72.5363,-25.7888 L 72.775,-25.6825
 L 72.9864,-25.5289 L 73.1613,-25.3347 L 73.2919,-25.1084 L 73.3727,-24.8599 L 73.4,-24.6 L 73.3727,-24.3401
 L 73.2919,-24.0916 L 73.1613,-23.8653 L 72.9864,-23.6711 L 72.775,-23.5175 L 72.5363,-23.4112 L 72.2807,-23.3568
 z
M 27.6693,-23.3568 L 27.4137,-23.4112 L 27.175,-23.5175 L 26.9636,-23.6711 L 26.7887,-23.8653 L 26.6581,-24.0916
 L 26.5773,-24.3401 L 26.55,-24.6 L 26.5773,-24.8599 L 26.6581,-25.1084 L 26.7887,-25.3347 L 26.9636,-25.5289
 L 27.175,-25.6825 L 27.4137,-25.7888 L 27.6693,-25.8431 L 27.9306,-25.8431 L 28.1863,-25.7888 L 28.425,-25.6825
 L 28.6364,-25.5289 L 28.8113,-25.3347 L 28.9419,-25.1084 L 29.0227,-24.8599 L 29.05,-24.6 L 29.0227,-24.3401
 L 28.9419,-24.0916 L 28.8113,-23.8653 L 28.6364,-23.6711 L 28.425,-23.5175 L 28.1863,-23.4112 L 27.9306,-23.3568
 z
" stroke="black" fill="lightgray" stroke-width="0.5"/></svg>
